<svg xmlns="http://www.w3.org/2000/svg" viewBox="0 0 300 300"><g fill="none" stroke="#8daab7" stroke-width="2"><path d="M144.78 51.61a5.7 5.7 0 0 0-5.7-5.7 5.7 5.7 0 0 0-5.7 5.7 5.7 5.7 0 0 0 5.7 5.7 5.7 5.7 0 0 0 5.7-5.7M170.58 54.85q-1.96-.61-2.11-2.65c-.23-3.37 2.56-5.03 5.34-3.06a.59.59 0 0 0 .82-.13l.73-.97a.67.67 0 0 0-.2-.99c-3.97-2.26-8.4-.87-9.15 3.85-.84 5.34 4.98 7.96 9.26 5.05a.64.63-35.9 0 0 .15-.91l-.68-.88a.63.63 0 0 0-.92-.08q-1.43 1.32-3.24.77M115 53.8c4.16-.16 7.8-2.34 4.36-6.87a1.22 1.21 72.4 0 0-.93-.49l-5.87-.26a.51.51 0 0 0-.53.51l-.1 9.77a.54.54 0 0 0 .54.54h1.4a.63.63 0 0 0 .63-.63v-2.06a.52.51-1.2 0 1 .5-.51M125.2 53.59c2.63-1.17 2.33 4.46 5.89 3.34a.46.46 0 0 0 .23-.7l-1.71-2.44a.58.58 0 0 1 .1-.78c2.79-2.31 2.63-5.74-1.2-6.76q-.9-.24-5.55.1a.56.55 88.4 0 0-.52.56l.07 9.56a.54.53 89.4 0 0 .53.53h1.09a.62.62 0 0 0 .62-.63l-.01-2.07a.79.78-12.4 0 1 .46-.71M150.13 54.9q-1.16.29-2.09-.61a.68.67-48.1 0 0-.99.06l-.75.89a.68.67-55.8 0 0 .19 1.02q2.23 1.24 4.79.6 1.98-.5 1.98-2.54l-.02-7.31a.67.66 90 0 0-.66-.67l-.97-.01a.51.51 0 0 0-.51.49l-.29 7.25a.9.89 84.4 0 1-.68.83M158.67 50.5a.42.42 0 0 1-.42-.42v-1.41a.42.42 0 0 1 .42-.42h4.91a.42.42 0 0 0 .42-.42v-1.17a.42.42 0 0 0-.42-.42l-7.21.03a.42.42 0 0 0-.42.42l.07 9.89a.42.42 0 0 0 .42.42h7.14a.42.42 0 0 0 .42-.42v-1.16a.42.42 0 0 0-.42-.42h-5.02a.42.42 0 0 1-.42-.43l.05-1.66a.42.42 0 0 1 .42-.41l4.15.01a.42.42 0 0 0 .42-.39l.09-1.17a.42.42 0 0 0-.42-.45h-4.18M186.01 47.69c.73-2.31-7.2-1.46-8.32-1.39a.68.68 0 0 0-.65.67v.64a.63.63 0 0 0 .63.64h2.21a.62.62 0 0 1 .62.62v7.52a.61.61 0 0 0 .64.61l.98-.03a.65.65 0 0 0 .63-.65v-7.44a.63.63 0 0 1 .63-.63h1.86a.81.81 0 0 0 .77-.56M148.45 72.25c.37 2.31-6.5 2.36-5.64-2.6.46-2.67 3.06-3.06 5.33-2.04a.88.87-54.2 0 0 .96-.16l.53-.51q1.54-1.46-.56-1.76c-14.88-2.14-8.49 16.09.97 9.51a1.07 1.07 0 0 0 .46-.88V70a.5.5 0 0 0-.5-.5h-3.32a.65.65 0 0 0-.65.63l-.04.98a.62.62 0 0 0 .62.64h1.25a.6.59-4.5 0 1 .59.5M92.5 70.03a.35.35 0 0 1 .64-.2l2.12 3.11a.35.35 0 0 0 .58-.01l2.27-3.44a.35.35 0 0 1 .64.19v5.58a.35.35 0 0 0 .31.35l1.55.18a.35.35 0 0 0 .39-.34v-10.1a.35.35 0 0 0-.35-.35h-2.13a.35.35 0 0 0-.3.17l-2.4 3.94a.35.35 0 0 1-.6 0l-2.32-3.95a.35.35 0 0 0-.3-.17l-2.25.02a.35.35 0 0 0-.35.35v10.1a.35.35 0 0 0 .4.35l1.8-.27a.35.35 0 0 0 .3-.35v-5.16M111.09 74.04q.26 1.93 2.33 1.7a.56.55 75.5 0 0 .45-.77l-3.99-9.49a.78.78 0 0 0-.72-.48h-1.21a.95.93 11.2 0 0-.87.57l-4 9.42a.53.53 0 0 0 .52.73l1.12-.07a.88.87-80.3 0 0 .76-.55l.41-1.08a.82.81 10.5 0 1 .76-.52h3.81a.64.63-4.2 0 1 .63.54M118.64 69.63c1.36 1.32 4.62 6.54 6.38 6.02a.67.67 0 0 0 .48-.64v-9.43a.6.6 0 0 0-.67-.6l-.88.11a.61.6 87.3 0 0-.53.59l-.12 5.06q-.02.62-.42.15c-1.48-1.74-3.88-6.28-6.4-5.91a.56.56 0 0 0-.48.55v9.66a.58.58 0 0 0 .69.57l.97-.19a.75.73-5.8 0 0 .6-.72l-.02-5.05q-.01-.57.4-.17" vector-effect="non-scaling-stroke"/><path d="m135.75 74.04.29 1.08a.88.87-7.9 0 0 .84.63h1.26a.52.52 0 0 0 .48-.73l-4.01-9.46a.92.91 78.2 0 0-.84-.56h-1.24a.79.79 0 0 0-.73.49l-3.98 9.33a.62.61 28.1 0 0 .23.74c1.43.95 2.17-.35 2.5-1.5a.77.77 0 0 1 .74-.56h3.75a.74.74 0 0 1 .71.54M155.69 67.23c1.49-.3 5.79.54 5.35-1.68a.67.67 0 0 0-.66-.55h-7.04a.4.4 0 0 0-.4.41l.09 9.61a.74.73 0 0 0 .74.73h6.61a.63.62 90 0 0 .62-.63v-.75a.62.62 0 0 0-.62-.62h-4.5a.63.63 0 0 1-.63-.63v-1a.62.62 0 0 1 .62-.62h4a.63.63 0 0 0 .63-.63v-.75a.63.62 0 0 0-.63-.62h-3.81a.71.7 85.9 0 1-.71-.62l-.12-1.01a.59.58 80.8 0 1 .46-.64M168.43 68.89l-2.14-3.45a.95.95 0 0 0-.8-.44H164a.5.5 0 0 0-.5.5v9.67a.6.59-3.4 0 0 .67.59l1-.11a.72.71-4.8 0 0 .63-.74l-.18-5.18q-.04-1.24.65-.21l2.17 3.26a.49.48-45.6 0 0 .81-.01l1.98-3.05a.43.42-52.8 0 1 .64-.09c.23.21.14 4.85.15 5.53a.61.61 0 0 0 .68.6l.93-.11a.71.7 86.8 0 0 .62-.7v-9.48a.5.5 0 0 0-.53-.5l-1.66.1a.93.92 13.5 0 0-.74.45l-2.1 3.37a.47.46 44.8 0 1-.79 0M179.67 67.24l4.84-.3a.62.61 5.1 0 0 .56-.46c.65-2.38-6.12-1.47-7.58-1.43a.48.48 0 0 0-.47.48l-.07 9.56a.64.64 0 0 0 .64.64l6.88.03a.79.79 0 0 0 .77-.61c.5-2.1-4.2-1.4-5.35-1.42a.65.65 0 0 1-.64-.65v-.96a.63.62 0 0 1 .63-.62h4a.63.62 90 0 0 .62-.63V70a.5.5 0 0 0-.5-.5h-3.84a.77.76 84.5 0 1-.75-.62l-.2-1.04a.51.5 83 0 1 .46-.6M194.1 70.89c-1.93-2.73-4.03-6.57-6.11-5.88a.75.75 0 0 0-.51.71l.03 9.41a.62.62 0 0 0 .62.62h1a.63.62 90 0 0 .62-.63l-.01-5.11q0-.84.57-.22c.35.38 7.38 10.39 6.92 4.1q-.29-4.14-.22-8.31a.6.6 0 0 0-.67-.6l-.84.11a.61.6 87.3 0 0-.53.59l-.05 4.95q-.01 1.4-.82.26M205.03 67.15l2.51-.2a.5.5 0 0 0 .46-.5v-.95a.5.5 0 0 0-.5-.5h-7.94a.6.6 0 0 0-.59.69l.21 1.39a.54.54 0 0 0 .85.36q1.05-.75 2.02-.17a.94.93-74.7 0 1 .45.8v7.12a.53.53 0 0 0 .51.53l.84.04a.62.61 1.3 0 0 .65-.61v-7.44a.57.56-2.2 0 1 .53-.56M118.44 89.09a5.71 5.71 0 0 0-5.71-5.71 5.71 5.71 0 0 0-5.71 5.71 5.71 5.71 0 0 0 5.71 5.71 5.71 5.71 0 0 0 5.71-5.71M143.72 86.12c.71-1.05 2.55-.29 3.33.25a.65.65 0 0 0 .92-.19l.56-.89a.58.57 32.4 0 0-.18-.79c-2.07-1.31-5.58-1.61-6.84.96-1.77 3.61 2.43 4.39 4.64 5.22a.95.95 0 0 1 .6.69c.5 2.19-3.62.71-4.37.17a.49.48-62.7 0 0-.75.24l-.38 1.14a.68.67 23.2 0 0 .33.81c6.59 3.39 12.08-3.74 2.69-6.16a.95.95 0 0 1-.55-1.45" vector-effect="non-scaling-stroke"/><path d="M153.74 85.91c.26-.73 2.61-.06 3.35.49a.56.55-55.9 0 0 .81-.16l.54-.87a.74.73-60.4 0 0-.27-1.02c-2.82-1.56-9.07-.38-6.57 3.96.83 1.45 3.08 1.86 4.63 2.45a.81.81 0 0 1 .53.7c.16 2.04-3.55.66-4.35.19a.64.64 0 0 0-.78.11c-2.96 3.03 5.06 2.77 6.06 2.45q2.21-.7 1.56-2.93-.99-3.39-4.88-3.56a1.42.93-75.8 0 1-.63-1.81M177.7 89.12a5.71 5.71 0 0 0-5.71-5.71 5.71 5.71 0 0 0-5.71 5.71 5.71 5.71 0 0 0 5.71 5.71 5.71 5.71 0 0 0 5.71-5.71M195.22 92.07l3.67.03a.89.89 0 0 1 .87.77q.29 2.19 2.56 1.57a.42.42 0 0 0 .27-.57l-4.1-9.69a.94.94 0 0 0-.74-.56l-1.09-.14a.74.74 0 0 0-.77.44l-4.28 9.94a.46.46 0 0 0 .42.64h1.22a.85.85 0 0 0 .82-.58l.49-1.38a.7.69 9.3 0 1 .66-.47M88.65 91.35c2.33.16 4.89-.5 5.49-3.09 1.21-5.24-4.95-4.53-7.9-4.48a.51.5 89.4 0 0-.49.51V94a.5.5 0 0 0 .5.5h1.22a.49.49 0 0 0 .49-.47l.13-2.19a.52.52 0 0 1 .56-.49M104.88 88.86c1.92-5.83-5.16-5.6-8.4-4.93a.6.6 0 0 0-.48.59v9.35a.63.63 0 0 0 .62.63l1.25.01a.68.68 0 0 0 .69-.7l-.07-1.94a.8.8 0 0 1 .48-.76c1.37-.57 2.59 1.55 3.39 2.92a.98.97-15 0 0 .84.48l1.57-.01q.74 0 .32-.61l-1.71-2.47a.78.78 0 0 1 .03-.92q.39-.51.91-.88a1.57 1.55 81.6 0 0 .56-.76M123.55 88.21a.42.42 0 0 1-.41-.42v-1.62a.42.42 0 0 1 .42-.42h5.02a.42.42 0 0 0 .42-.42v-1.16a.42.42 0 0 0-.42-.42h-7.41a.42.42 0 0 0-.42.42v9.9a.42.42 0 0 0 .42.42l1.4.02a.42.42 0 0 0 .42-.42l.01-3.42a.42.42 0 0 1 .42-.42h4.24a.42.42 0 0 0 .41-.33l.25-1.06a.42.42 0 0 0-.4-.52l-4.37-.13M133.66 92.43a.42.42 0 0 1-.41-.41l-.02-1.58a.42.42 0 0 1 .42-.43l4.39-.02a.42.42 0 0 0 .42-.4l.05-1.15a.42.42 0 0 0-.42-.44l-4.3.01a.42.42 0 0 1-.41-.37l-.17-1.42a.42.42 0 0 1 .41-.47l5.11.01a.42.42 0 0 0 .42-.48l-.18-1.17a.42.42 0 0 0-.41-.36h-7.14a.42.42 0 0 0-.42.42v9.87a.42.42 0 0 0 .41.42l7.13.13a.42.42 0 0 0 .43-.4l.05-1.21a.42.42 0 0 0-.41-.44l-4.95-.11M164 84.2a.43.43 0 0 0-.43-.43h-1.64a.43.43 0 0 0-.43.43v9.88a.43.43 0 0 0 .43.43h1.64a.43.43 0 0 0 .43-.43V84.2M182.25 88.38a.32.32 0 0 1 .58-.19l4.59 6.19a.32.32 0 0 0 .26.13l1.5-.02a.32.32 0 0 0 .32-.32V84.08a.32.32 0 0 0-.32-.32l-1.35-.02a.32.32 0 0 0-.32.32l-.01 5.68a.32.32 0 0 1-.57.2l-4.53-5.95a.32.32 0 0 0-.23-.12l-1.87-.15a.32.32 0 0 0-.35.32l.07 10.16a.32.32 0 0 0 .33.32l1.59-.06a.32.32 0 0 0 .31-.32v-5.76M207.59 92.5a.43.43 0 0 1-.43-.42l-.22-7.91a.43.43 0 0 0-.43-.42l-1.58-.01a.43.43 0 0 0-.43.43v9.9a.43.43 0 0 0 .43.43h7.14a.43.43 0 0 0 .43-.43v-1.14a.43.43 0 0 0-.43-.43h-4.48M142.38 51.61a3.3 3.3 0 0 0-3.3-3.3 3.3 3.3 0 0 0-3.3 3.3 3.3 3.3 0 0 0 3.3 3.3 3.3 3.3 0 0 0 3.3-3.3M117.58 48.72l-2.31-.55a.62.61 7.2 0 0-.76.58l-.03 1.68a1.32 1.31-.8 0 0 1.38 1.33q2.02-.09 2.36-2.06a.87.86-78.4 0 0-.64-.98M125.26 48.51a.52.52 0 0 0-.51.52v1.9a.63.63 0 0 0 .69.63l2.58-.28a.95.94-82.2 0 0 .78-.6c1.17-2.95-2.11-2.22-3.54-2.17M108.92 68.64a.44.44 0 0 0-.82-.01l-.9 2.27a.44.44 0 0 0 .41.6h1.75a.44.44 0 0 0 .41-.59l-.85-2.27M131.87 70.89a.43.43 0 0 0 .39.59l1.71.04a.43.43 0 0 0 .42-.58l-.82-2.26a.43.43 0 0 0-.8-.01l-.9 2.22M112.583 92.488a3.36 3.14 92 0 0 3.255-3.248 3.36 3.14 92 0 0-3.02-3.468 3.36 3.14 92 0 0-3.256 3.248 3.36 3.14 92 0 0 3.02 3.468" vector-effect="non-scaling-stroke"/><path d="M175.24 89.09a3.26 3.26 0 0 0-3.26-3.26 3.26 3.26 0 0 0-3.26 3.26 3.26 3.26 0 0 0 3.26 3.26 3.26 3.26 0 0 0 3.26-3.26M196.61 90.01l1.13-.04a.53.53 0 0 0 .47-.71l-.76-2.02q-.23-.61-.53-.03l-.93 1.84a.66.66 0 0 0 .62.96M91.17 86.19q-1.16-.66-2.45-.42a.75.74-7 0 0-.61.77l.11 2.12a.58.58 0 0 0 .45.54q1.74.41 2.85-.81a1.43 1.43 0 0 0-.35-2.2M102.11 86.15q-1.47-.71-3.09-.31a.69.68-7.1 0 0-.52.66v1.57a.86.85-81.8 0 0 .61.82q2.13.65 3.4-.82a1.24 1.24 0 0 0-.4-1.92" vector-effect="non-scaling-stroke"/></g><path fill="#1c556f" d="M276.97 148.75a127.26 127.26 0 0 1-127.26 127.26A127.26 127.26 0 0 1 22.45 148.75 127.26 127.26 0 0 1 149.71 21.49a127.26 127.26 0 0 1 127.26 127.26ZM144.78 51.61a5.7 5.7 0 0 0-5.7-5.7 5.7 5.7 0 0 0-5.7 5.7 5.7 5.7 0 0 0 5.7 5.7 5.7 5.7 0 0 0 5.7-5.7Zm25.8 3.24q-1.96-.61-2.11-2.65c-.23-3.37 2.56-5.03 5.34-3.06a.59.59 0 0 0 .82-.13l.73-.97a.67.67 0 0 0-.2-.99c-3.97-2.26-8.4-.87-9.15 3.85-.84 5.34 4.98 7.96 9.26 5.05a.64.63-35.9 0 0 .15-.91l-.68-.88a.63.63 0 0 0-.92-.08q-1.43 1.32-3.24.77ZM115 53.8c4.16-.16 7.8-2.34 4.36-6.87a1.22 1.21 72.4 0 0-.93-.49l-5.87-.26a.51.51 0 0 0-.53.51l-.1 9.77a.54.54 0 0 0 .54.54h1.4a.63.63 0 0 0 .63-.63v-2.06a.52.51-1.2 0 1 .5-.51Zm10.2-.21c2.63-1.17 2.33 4.46 5.89 3.34a.46.46 0 0 0 .23-.7l-1.71-2.44a.58.58 0 0 1 .1-.78c2.79-2.31 2.63-5.74-1.2-6.76q-.9-.24-5.55.1a.56.55 88.4 0 0-.52.56l.07 9.56a.54.53 89.4 0 0 .53.53h1.09a.62.62 0 0 0 .62-.63l-.01-2.07a.79.78-12.4 0 1 .46-.71Zm24.93 1.31q-1.16.29-2.09-.61a.68.67-48.1 0 0-.99.06l-.75.89a.68.67-55.8 0 0 .19 1.02q2.23 1.24 4.79.6 1.98-.5 1.98-2.54l-.02-7.31a.67.66 90 0 0-.66-.67l-.97-.01a.51.51 0 0 0-.51.49l-.29 7.25a.9.89 84.4 0 1-.68.83Zm8.54-4.4a.42.42 0 0 1-.42-.42v-1.41a.42.42 0 0 1 .42-.42h4.91a.42.42 0 0 0 .42-.42v-1.17a.42.42 0 0 0-.42-.42l-7.21.03a.42.42 0 0 0-.42.42l.07 9.89a.42.42 0 0 0 .42.42h7.14a.42.42 0 0 0 .42-.42v-1.16a.42.42 0 0 0-.42-.42h-5.02a.42.42 0 0 1-.42-.43l.05-1.66a.42.42 0 0 1 .42-.41l4.15.01a.42.42 0 0 0 .42-.39l.09-1.17a.42.42 0 0 0-.42-.45h-4.18Zm27.34-2.81c.73-2.31-7.2-1.46-8.32-1.39a.68.68 0 0 0-.65.67v.64a.63.63 0 0 0 .63.64h2.21a.62.62 0 0 1 .62.62v7.52a.61.61 0 0 0 .64.61l.98-.03a.65.65 0 0 0 .63-.65v-7.44a.63.63 0 0 1 .63-.63h1.86a.81.81 0 0 0 .77-.56Zm-37.56 24.56c.37 2.31-6.5 2.36-5.64-2.6.46-2.67 3.06-3.06 5.33-2.04a.88.87-54.2 0 0 .96-.16l.53-.51q1.54-1.46-.56-1.76c-14.88-2.14-8.49 16.09.97 9.51a1.07 1.07 0 0 0 .46-.88V70a.5.5 0 0 0-.5-.5h-3.32a.65.65 0 0 0-.65.63l-.04.98a.62.62 0 0 0 .62.64h1.25a.6.59-4.5 0 1 .59.5ZM92.5 70.03a.35.35 0 0 1 .64-.2l2.12 3.11a.35.35 0 0 0 .58-.01l2.27-3.44a.35.35 0 0 1 .64.19v5.58a.35.35 0 0 0 .31.35l1.55.18a.35.35 0 0 0 .39-.34v-10.1a.35.35 0 0 0-.35-.35h-2.13a.35.35 0 0 0-.3.17l-2.4 3.94a.35.35 0 0 1-.6 0l-2.32-3.95a.35.35 0 0 0-.3-.17l-2.25.02a.35.35 0 0 0-.35.35v10.1a.35.35 0 0 0 .4.35l1.8-.27a.35.35 0 0 0 .3-.35v-5.16Zm18.59 4.01q.26 1.93 2.33 1.7a.56.55 75.5 0 0 .45-.77l-3.99-9.49a.78.78 0 0 0-.72-.48h-1.21a.95.93 11.2 0 0-.87.57l-4 9.42a.53.53 0 0 0 .52.73l1.12-.07a.88.87-80.3 0 0 .76-.55l.41-1.08a.82.81 10.5 0 1 .76-.52h3.81a.64.63-4.2 0 1 .63.54Zm7.55-4.41c1.36 1.32 4.62 6.54 6.38 6.02a.67.67 0 0 0 .48-.64v-9.43a.6.6 0 0 0-.67-.6l-.88.11a.61.6 87.3 0 0-.53.59l-.12 5.06q-.02.62-.42.15c-1.48-1.74-3.88-6.28-6.4-5.91a.56.56 0 0 0-.48.55v9.66a.58.58 0 0 0 .69.57l.97-.19a.75.73-5.8 0 0 .6-.72l-.02-5.05q-.01-.57.4-.17Zm17.11 4.41.29 1.08a.88.87-7.9 0 0 .84.63h1.26a.52.52 0 0 0 .48-.73l-4.01-9.46a.92.91 78.2 0 0-.84-.56h-1.24a.79.79 0 0 0-.73.49l-3.98 9.33a.62.61 28.1 0 0 .23.74c1.43.95 2.17-.35 2.5-1.5a.77.77 0 0 1 .74-.56h3.75a.74.74 0 0 1 .71.54Zm19.94-6.81c1.49-.3 5.79.54 5.35-1.68a.67.67 0 0 0-.66-.55h-7.04a.4.4 0 0 0-.4.41l.09 9.61a.74.73 0 0 0 .74.73h6.61a.63.62 90 0 0 .62-.63v-.75a.62.62 0 0 0-.62-.62h-4.5a.63.63 0 0 1-.63-.63v-1a.62.62 0 0 1 .62-.62h4a.63.63 0 0 0 .63-.63v-.75a.63.62 0 0 0-.63-.62h-3.81a.71.7 85.9 0 1-.71-.62l-.12-1.01a.59.58 80.8 0 1 .46-.64Zm12.74 1.66-2.14-3.45a.95.95 0 0 0-.8-.44H164a.5.5 0 0 0-.5.5v9.67a.6.59-3.4 0 0 .67.59l1-.11a.72.71-4.8 0 0 .63-.74l-.18-5.18q-.04-1.24.65-.21l2.17 3.26a.49.48-45.6 0 0 .81-.01l1.98-3.05a.43.42-52.8 0 1 .64-.09c.23.21.14 4.85.15 5.53a.61.61 0 0 0 .68.6l.93-.11a.71.7 86.8 0 0 .62-.7v-9.48a.5.5 0 0 0-.53-.5l-1.66.1a.93.92 13.5 0 0-.74.45l-2.1 3.37a.47.46 44.8 0 1-.79 0Zm11.24-1.65 4.84-.3a.62.61 5.1 0 0 .56-.46c.65-2.38-6.12-1.47-7.58-1.43a.48.48 0 0 0-.47.48l-.07 9.56a.64.64 0 0 0 .64.64l6.88.03a.79.79 0 0 0 .77-.61c.5-2.1-4.2-1.4-5.35-1.42a.65.65 0 0 1-.64-.65v-.96a.63.62 0 0 1 .63-.62h4a.63.62 90 0 0 .62-.63V70a.5.5 0 0 0-.5-.5h-3.84a.77.76 84.5 0 1-.75-.62l-.2-1.04a.51.5 83 0 1 .46-.6Zm14.43 3.65c-1.93-2.73-4.03-6.57-6.11-5.88a.75.75 0 0 0-.51.71l.03 9.41a.62.62 0 0 0 .62.62h1a.63.62 90 0 0 .62-.63l-.01-5.11q0-.84.57-.22c.35.38 7.38 10.39 6.92 4.1q-.29-4.14-.22-8.31a.6.6 0 0 0-.67-.6l-.84.11a.61.6 87.3 0 0-.53.59l-.05 4.95q-.01 1.4-.82.26Zm10.93-3.74 2.51-.2a.5.5 0 0 0 .46-.5v-.95a.5.5 0 0 0-.5-.5h-7.94a.6.6 0 0 0-.59.69l.21 1.39a.54.54 0 0 0 .85.36q1.05-.75 2.02-.17a.94.93-74.7 0 1 .45.8v7.12a.53.53 0 0 0 .51.53l.84.04a.62.61 1.3 0 0 .65-.61v-7.44a.57.56-2.2 0 1 .53-.56Zm-86.59 21.94a5.71 5.71 0 0 0-5.71-5.71 5.71 5.71 0 0 0-5.71 5.71 5.71 5.71 0 0 0 5.71 5.71 5.71 5.71 0 0 0 5.71-5.71Zm25.28-2.97c.71-1.05 2.55-.29 3.33.25a.65.65 0 0 0 .92-.19l.56-.89a.58.57 32.4 0 0-.18-.79c-2.07-1.31-5.58-1.61-6.84.96-1.77 3.61 2.43 4.39 4.64 5.22a.95.95 0 0 1 .6.69c.5 2.19-3.62.71-4.37.17a.49.48-62.7 0 0-.75.24l-.38 1.14a.68.67 23.2 0 0 .33.81c6.59 3.39 12.08-3.74 2.69-6.16a.95.95 0 0 1-.55-1.45Zm10.02-.21c.26-.73 2.61-.06 3.35.49a.56.55-55.9 0 0 .81-.16l.54-.87a.74.73-60.4 0 0-.27-1.02c-2.82-1.56-9.07-.38-6.57 3.96.83 1.45 3.08 1.86 4.63 2.45a.81.81 0 0 1 .53.7c.16 2.04-3.55.66-4.35.19a.64.64 0 0 0-.78.11c-2.96 3.03 5.06 2.77 6.06 2.45q2.21-.7 1.56-2.93-.99-3.39-4.88-3.56a1.42.93-75.8 0 1-.63-1.81Zm23.96 3.21a5.71 5.71 0 0 0-5.71-5.71 5.71 5.71 0 0 0-5.71 5.71 5.71 5.71 0 0 0 5.71 5.71 5.71 5.71 0 0 0 5.71-5.71Zm17.52 2.95 3.67.03a.89.89 0 0 1 .87.77q.29 2.19 2.56 1.57a.42.42 0 0 0 .27-.57l-4.1-9.69a.94.94 0 0 0-.74-.56l-1.09-.14a.74.74 0 0 0-.77.44l-4.28 9.94a.46.46 0 0 0 .42.64h1.22a.85.85 0 0 0 .82-.58l.49-1.38a.7.69 9.3 0 1 .66-.47Zm-106.57-.72c2.33.16 4.89-.5 5.49-3.09 1.21-5.24-4.95-4.53-7.9-4.48a.51.5 89.4 0 0-.49.51V94a.5.5 0 0 0 .5.5h1.22a.49.49 0 0 0 .49-.47l.13-2.19a.52.52 0 0 1 .56-.49Zm16.23-2.49c1.92-5.83-5.16-5.6-8.4-4.93a.6.6 0 0 0-.48.59v9.35a.63.63 0 0 0 .62.63l1.25.01a.68.68 0 0 0 .69-.7l-.07-1.94a.8.8 0 0 1 .48-.76c1.37-.57 2.59 1.55 3.39 2.92a.98.97-15 0 0 .84.48l1.57-.01q.74 0 .32-.61l-1.71-2.47a.78.78 0 0 1 .03-.92q.39-.51.91-.88a1.57 1.55 81.6 0 0 .56-.76Zm18.67-.65a.42.42 0 0 1-.41-.42v-1.62a.42.42 0 0 1 .42-.42h5.02a.42.42 0 0 0 .42-.42v-1.16a.42.42 0 0 0-.42-.42h-7.41a.42.42 0 0 0-.42.42v9.9a.42.42 0 0 0 .42.42l1.4.02a.42.42 0 0 0 .42-.42l.01-3.42a.42.42 0 0 1 .42-.42h4.24a.42.42 0 0 0 .41-.33l.25-1.06a.42.42 0 0 0-.4-.52l-4.37-.13Zm10.11 4.22a.42.42 0 0 1-.41-.41l-.02-1.58a.42.42 0 0 1 .42-.43l4.39-.02a.42.42 0 0 0 .42-.4l.05-1.15a.42.42 0 0 0-.42-.44l-4.3.01a.42.42 0 0 1-.41-.37l-.17-1.42a.42.42 0 0 1 .41-.47l5.11.01a.42.42 0 0 0 .42-.48l-.18-1.17a.42.42 0 0 0-.41-.36h-7.14a.42.42 0 0 0-.42.42v9.87a.42.42 0 0 0 .41.42l7.13.13a.42.42 0 0 0 .43-.4l.05-1.21a.42.42 0 0 0-.41-.44l-4.95-.11ZM164 84.2a.43.43 0 0 0-.43-.43h-1.64a.43.43 0 0 0-.43.43v9.88a.43.43 0 0 0 .43.43h1.64a.43.43 0 0 0 .43-.43V84.2Zm18.25 4.18a.32.32 0 0 1 .58-.19l4.59 6.19a.32.32 0 0 0 .26.13l1.5-.02a.32.32 0 0 0 .32-.32V84.08a.32.32 0 0 0-.32-.32l-1.35-.02a.32.32 0 0 0-.32.32l-.01 5.68a.32.32 0 0 1-.57.2l-4.53-5.95a.32.32 0 0 0-.23-.12l-1.87-.15a.32.32 0 0 0-.35.32l.07 10.16a.32.32 0 0 0 .33.32l1.59-.06a.32.32 0 0 0 .31-.32v-5.76Zm25.34 4.12a.43.43 0 0 1-.43-.42l-.22-7.91a.43.43 0 0 0-.43-.42l-1.58-.01a.43.43 0 0 0-.43.43v9.9a.43.43 0 0 0 .43.43h7.14a.43.43 0 0 0 .43-.43v-1.14a.43.43 0 0 0-.43-.43h-4.48Zm-55.86 178.15c81.87-1.87 140.14-81.92 113.4-160.93a.68.68 0 0 0-.65-.47H35.23a1.3 1.3 0 0 0-1.24.9q-8.47 26.67-5.4 53.29c7.03 61.17 61.27 108.63 123.14 107.21Z"/><path fill="#fefefe" d="M144.78 51.61a5.7 5.7 0 0 1-5.7 5.7 5.7 5.7 0 0 1-5.7-5.7 5.7 5.7 0 0 1 5.7-5.7 5.7 5.7 0 0 1 5.7 5.7Zm-2.4 0a3.3 3.3 0 0 0-3.3-3.3 3.3 3.3 0 0 0-3.3 3.3 3.3 3.3 0 0 0 3.3 3.3 3.3 3.3 0 0 0 3.3-3.3ZM170.58 54.85q1.81.55 3.24-.77a.63.63 0 0 1 .92.08l.68.88a.64.63-35.9 0 1-.15.91c-4.28 2.91-10.1.29-9.26-5.05.75-4.72 5.18-6.11 9.15-3.85a.67.67 0 0 1 .2.99l-.73.97a.59.59 0 0 1-.82.13c-2.78-1.97-5.57-.31-5.34 3.06q.15 2.04 2.11 2.65ZM114.5 54.31v2.06a.63.63 0 0 1-.63.63h-1.4a.54.54 0 0 1-.54-.54l.1-9.77a.51.51 0 0 1 .53-.51l5.87.26a1.22 1.21 72.4 0 1 .93.49c3.44 4.53-.2 6.71-4.36 6.87a.52.51-1.2 0 0-.5.51Zm3.08-5.59-2.31-.55a.62.61 7.2 0 0-.76.58l-.03 1.68a1.32 1.31-.8 0 0 1.38 1.33q2.02-.09 2.36-2.06a.87.86-78.4 0 0-.64-.98ZM124.74 54.3l.01 2.07a.62.62 0 0 1-.62.63h-1.09a.54.53 89.4 0 1-.53-.53l-.07-9.56a.56.55 88.4 0 1 .52-.56q4.65-.34 5.55-.1c3.83 1.02 3.99 4.45 1.2 6.76a.58.58 0 0 0-.1.78l1.71 2.44a.46.46 0 0 1-.23.7c-3.56 1.12-3.26-4.51-5.89-3.34a.79.78-12.4 0 0-.46.71Zm.52-5.79a.52.52 0 0 0-.51.52v1.9a.63.63 0 0 0 .69.63l2.58-.28a.95.94-82.2 0 0 .78-.6c1.17-2.95-2.11-2.22-3.54-2.17ZM150.81 54.07l.29-7.25a.51.51 0 0 1 .51-.49l.97.01a.67.66-90 0 1 .66.67l.02 7.31q0 2.04-1.98 2.54-2.56.64-4.79-.6a.68.67-55.8 0 1-.19-1.02l.75-.89a.68.67-48.1 0 1 .99-.06q.93.9 2.09.61a.9.89 84.4 0 0 .68-.83ZM158.67 50.5h4.18a.42.42 0 0 1 .42.45l-.09 1.17a.42.42 0 0 1-.42.39l-4.15-.01a.42.42 0 0 0-.42.41l-.05 1.66a.42.42 0 0 0 .42.43h5.02a.42.42 0 0 1 .42.42v1.16a.42.42 0 0 1-.42.42h-7.14a.42.42 0 0 1-.42-.42l-.07-9.89a.42.42 0 0 1 .42-.42l7.21-.03a.42.42 0 0 1 .42.42v1.17a.42.42 0 0 1-.42.42h-4.91a.42.42 0 0 0-.42.42v1.41a.42.42 0 0 0 .42.42ZM177.69 46.3c1.12-.07 9.05-.92 8.32 1.39a.81.81 0 0 1-.77.56h-1.86a.63.63 0 0 0-.63.63v7.44a.65.65 0 0 1-.63.65l-.98.03a.61.61 0 0 1-.64-.61v-7.52a.62.62 0 0 0-.62-.62h-2.21a.63.63 0 0 1-.63-.64v-.64a.68.68 0 0 1 .65-.67Z"/><path fill="#1c556f" d="M117.58 48.72a.87.86-78.4 0 1 .64.98q-.34 1.97-2.36 2.06a1.32 1.31-.8 0 1-1.38-1.33l.03-1.68a.62.61 7.2 0 1 .76-.58l2.31.55ZM125.26 48.51c1.43-.05 4.71-.78 3.54 2.17a.95.94-82.2 0 1-.78.6l-2.58.28a.63.63 0 0 1-.69-.63v-1.9a.52.52 0 0 1 .51-.52Z"/><circle cx="139.08" cy="51.61" r="3.3" fill="#1c556f"/><path fill="#fefefe" d="M142.81 69.65c-.86 4.96 6.01 4.91 5.64 2.6a.6.59-4.5 0 0-.59-.5h-1.25a.62.62 0 0 1-.62-.64l.04-.98a.65.65 0 0 1 .65-.63H150a.5.5 0 0 1 .5.5v3.81a1.07 1.07 0 0 1-.46.88c-9.46 6.58-15.85-11.65-.97-9.51q2.1.3.56 1.76l-.53.51a.88.87-54.2 0 1-.96.16c-2.27-1.02-4.87-.63-5.33 2.04ZM92.5 70.03v5.16a.35.35 0 0 1-.3.35l-1.8.27a.35.35 0 0 1-.4-.35v-10.1a.35.35 0 0 1 .35-.35l2.25-.02a.35.35 0 0 1 .3.17l2.32 3.95a.35.35 0 0 0 .6 0l2.4-3.94a.35.35 0 0 1 .3-.17h2.13a.35.35 0 0 1 .35.35v10.1a.35.35 0 0 1-.39.34l-1.55-.18a.35.35 0 0 1-.31-.35v-5.58a.35.35 0 0 0-.64-.19l-2.27 3.44a.35.35 0 0 1-.58.01l-2.12-3.11a.35.35 0 0 0-.64.2ZM110.46 73.5h-3.81a.82.81 10.5 0 0-.76.52l-.41 1.08a.88.87-80.3 0 1-.76.55l-1.12.07a.53.53 0 0 1-.52-.73l4-9.42a.95.93 11.2 0 1 .87-.57h1.21a.78.78 0 0 1 .72.48l3.99 9.49a.56.55 75.5 0 1-.45.77q-2.07.23-2.33-1.7a.64.63-4.2 0 0-.63-.54Zm-1.54-4.86a.44.44 0 0 0-.82-.01l-.9 2.27a.44.44 0 0 0 .41.6h1.75a.44.44 0 0 0 .41-.59l-.85-2.27ZM118.24 69.8l.02 5.05a.75.73-5.8 0 1-.6.72l-.97.19a.58.58 0 0 1-.69-.57v-9.66a.56.56 0 0 1 .48-.55c2.52-.37 4.92 4.17 6.4 5.91q.4.47.42-.15l.12-5.06a.61.6 87.3 0 1 .53-.59l.88-.11a.6.6 0 0 1 .67.6v9.43a.67.67 0 0 1-.48.64c-1.76.52-5.02-4.7-6.38-6.02q-.41-.4-.4.17Z"/><path fill="#fefefe" d="M135.04 73.5h-3.75a.77.77 0 0 0-.74.56c-.33 1.15-1.07 2.45-2.5 1.5a.62.61 28.1 0 1-.23-.74l3.98-9.33a.79.79 0 0 1 .73-.49h1.24a.92.91 78.2 0 1 .84.56l4.01 9.46a.52.52 0 0 1-.48.73h-1.26a.88.87-7.9 0 1-.84-.63l-.29-1.08a.74.74 0 0 0-.71-.54Zm-3.17-2.61a.43.43 0 0 0 .39.59l1.71.04a.43.43 0 0 0 .42-.58l-.82-2.26a.43.43 0 0 0-.8-.01l-.9 2.22ZM155.23 67.87l.12 1.01a.71.7 85.9 0 0 .71.62h3.81a.63.62 0 0 1 .63.62v.75a.63.63 0 0 1-.63.63h-4a.62.62 0 0 0-.62.62v1a.63.63 0 0 0 .63.63h4.5a.62.62 0 0 1 .62.62v.75a.63.62-90 0 1-.62.63h-6.61a.74.73 0 0 1-.74-.73l-.09-9.61a.4.4 0 0 1 .4-.41h7.04a.67.67 0 0 1 .66.55c.44 2.22-3.86 1.38-5.35 1.68a.59.58 80.8 0 0-.46.64ZM169.22 68.89l2.1-3.37a.93.92 13.5 0 1 .74-.45l1.66-.1a.5.5 0 0 1 .53.5v9.48a.71.7 86.8 0 1-.62.7l-.93.11a.61.61 0 0 1-.68-.6c-.01-.68.08-5.32-.15-5.53a.43.42-52.8 0 0-.64.09l-1.98 3.05a.49.48-45.6 0 1-.81.01l-2.17-3.26q-.69-1.03-.65.21l.18 5.18a.72.71-4.8 0 1-.63.74l-1 .11a.6.59-3.4 0 1-.67-.59V65.5a.5.5 0 0 1 .5-.5h1.49a.95.95 0 0 1 .8.44l2.14 3.45a.47.46 44.8 0 0 .79 0ZM179.21 67.84l.2 1.04a.77.76 84.5 0 0 .75.62H184a.5.5 0 0 1 .5.5v.87a.63.62-90 0 1-.62.63h-4a.63.62 0 0 0-.63.62v.96a.65.65 0 0 0 .64.65c1.15.02 5.85-.68 5.35 1.42a.79.79 0 0 1-.77.61l-6.88-.03a.64.64 0 0 1-.64-.64l.07-9.56a.48.48 0 0 1 .47-.48c1.46-.04 8.23-.95 7.58 1.43a.62.61 5.1 0 1-.56.46l-4.84.3a.51.5 83 0 0-.46.6ZM194.92 70.63l.05-4.95a.61.6 87.3 0 1 .53-.59l.84-.11a.6.6 0 0 1 .67.6q-.07 4.17.22 8.31c.46 6.29-6.57-3.72-6.92-4.1q-.57-.62-.57.22l.01 5.11a.63.62-90 0 1-.62.63h-1a.62.62 0 0 1-.62-.62l-.03-9.41a.75.75 0 0 1 .51-.71c2.08-.69 4.18 3.15 6.11 5.88q.81 1.14.82-.26ZM204.5 67.71v7.44a.62.61 1.3 0 1-.65.61l-.84-.04a.53.53 0 0 1-.51-.53v-7.12a.94.93-74.7 0 0-.45-.8q-.97-.58-2.02.17a.54.54 0 0 1-.85-.36l-.21-1.39a.6.6 0 0 1 .59-.69h7.94a.5.5 0 0 1 .5.5v.95a.5.5 0 0 1-.46.5l-2.51.2a.57.56-2.2 0 0-.53.56Z"/><path fill="#1c556f" d="m108.92 68.64.85 2.27a.44.44 0 0 1-.41.59h-1.75a.44.44 0 0 1-.41-.6l.9-2.27a.44.44 0 0 1 .82.01ZM131.87 70.89l.9-2.22a.43.43 0 0 1 .8.01l.82 2.26a.43.43 0 0 1-.42.58l-1.71-.04a.43.43 0 0 1-.39-.59Z"/><path fill="#fefefe" d="M118.44 89.09a5.71 5.71 0 0 1-5.71 5.71 5.71 5.71 0 0 1-5.71-5.71 5.71 5.71 0 0 1 5.71-5.71 5.71 5.71 0 0 1 5.71 5.71Zm-5.857 3.398a3.36 3.14 92 0 0 3.255-3.248 3.36 3.14 92 0 0-3.02-3.468 3.36 3.14 92 0 0-3.256 3.248 3.36 3.14 92 0 0 3.02 3.468ZM147.05 86.37c-.78-.54-2.62-1.3-3.33-.25a.95.95 0 0 0 .55 1.45c9.39 2.42 3.9 9.55-2.69 6.16a.68.67 23.2 0 1-.33-.81l.38-1.14a.49.48-62.7 0 1 .75-.24c.75.54 4.87 2.02 4.37-.17a.95.95 0 0 0-.6-.69c-2.21-.83-6.41-1.61-4.64-5.22 1.26-2.57 4.77-2.27 6.84-.96a.58.57 32.4 0 1 .18.79l-.56.89a.65.65 0 0 1-.92.19Z"/><path fill="#fefefe" d="M157.09 86.4c-.74-.55-3.09-1.22-3.35-.49a1.42.93-75.8 0 0 .63 1.81q3.89.17 4.88 3.56.65 2.23-1.56 2.93c-1 .32-9.02.58-6.06-2.45a.64.64 0 0 1 .78-.11c.8.47 4.51 1.85 4.35-.19a.81.81 0 0 0-.53-.7c-1.55-.59-3.8-1-4.63-2.45-2.5-4.34 3.75-5.52 6.57-3.96a.74.73-60.4 0 1 .27 1.02l-.54.87a.56.55-55.9 0 1-.81.16ZM177.7 89.12a5.71 5.71 0 0 1-5.71 5.71 5.71 5.71 0 0 1-5.71-5.71 5.71 5.71 0 0 1 5.71-5.71 5.71 5.71 0 0 1 5.71 5.71Zm-2.46-.03a3.26 3.26 0 0 0-3.26-3.26 3.26 3.26 0 0 0-3.26 3.26 3.26 3.26 0 0 0 3.26 3.26 3.26 3.26 0 0 0 3.26-3.26ZM194.56 92.54l-.49 1.38a.85.85 0 0 1-.82.58h-1.22a.46.46 0 0 1-.42-.64l4.28-9.94a.74.74 0 0 1 .77-.44l1.09.14a.94.94 0 0 1 .74.56l4.1 9.69a.42.42 0 0 1-.27.57q-2.27.62-2.56-1.57a.89.89 0 0 0-.87-.77l-3.67-.03a.7.69 9.3 0 0-.66.47Zm2.05-2.53 1.13-.04a.53.53 0 0 0 .47-.71l-.76-2.02q-.23-.61-.53-.03l-.93 1.84a.66.66 0 0 0 .62.96ZM88.09 91.84l-.13 2.19a.49.49 0 0 1-.49.47h-1.22a.5.5 0 0 1-.5-.5v-9.71a.51.5 89.4 0 1 .49-.51c2.95-.05 9.11-.76 7.9 4.48-.6 2.59-3.16 3.25-5.49 3.09a.52.52 0 0 0-.56.49Zm3.08-5.65q-1.16-.66-2.45-.42a.75.74-7 0 0-.61.77l.11 2.12a.58.58 0 0 0 .45.54q1.74.41 2.85-.81a1.43 1.43 0 0 0-.35-2.2ZM96.48 83.93c3.24-.67 10.32-.9 8.4 4.93a1.57 1.55 81.6 0 1-.56.76q-.52.37-.91.88a.78.78 0 0 0-.03.92l1.71 2.47q.42.61-.32.61l-1.57.01a.98.97-15 0 1-.84-.48c-.8-1.37-2.02-3.49-3.39-2.92a.8.8 0 0 0-.48.76l.07 1.94a.68.68 0 0 1-.69.7l-1.25-.01a.63.63 0 0 1-.62-.63v-9.35a.6.6 0 0 1 .48-.59Zm5.63 2.22q-1.47-.71-3.09-.31a.69.68-7.1 0 0-.52.66v1.57a.86.85-81.8 0 0 .61.82q2.13.65 3.4-.82a1.24 1.24 0 0 0-.4-1.92ZM123.55 88.21l4.37.13a.42.42 0 0 1 .4.52l-.25 1.06a.42.42 0 0 1-.41.33h-4.24a.42.42 0 0 0-.42.42l-.01 3.42a.42.42 0 0 1-.42.42l-1.4-.02a.42.42 0 0 1-.42-.42v-9.9a.42.42 0 0 1 .42-.42h7.41a.42.42 0 0 1 .42.42v1.16a.42.42 0 0 1-.42.42h-5.02a.42.42 0 0 0-.42.42v1.62a.42.42 0 0 0 .41.42ZM133.66 92.43l4.95.11a.42.42 0 0 1 .41.44l-.05 1.21a.42.42 0 0 1-.43.4l-7.13-.13a.42.42 0 0 1-.41-.42v-9.87a.42.42 0 0 1 .42-.42h7.14a.42.42 0 0 1 .41.36l.18 1.17a.42.42 0 0 1-.42.48l-5.11-.01a.42.42 0 0 0-.41.47l.17 1.42a.42.42 0 0 0 .41.37l4.3-.01a.42.42 0 0 1 .42.44l-.05 1.15a.42.42 0 0 1-.42.4l-4.39.02a.42.42 0 0 0-.42.43l.02 1.58a.42.42 0 0 0 .41.41Z"/><rect width="2.5" height="10.74" x="161.5" y="83.77" fill="#fefefe" rx=".43"/><path fill="#fefefe" d="M182.25 88.38v5.76a.32.32 0 0 1-.31.32l-1.59.06a.32.32 0 0 1-.33-.32l-.07-10.16a.32.32 0 0 1 .35-.32l1.87.15a.32.32 0 0 1 .23.12l4.53 5.95a.32.32 0 0 0 .57-.2l.01-5.68a.32.32 0 0 1 .32-.32l1.35.02a.32.32 0 0 1 .32.32v10.09a.32.32 0 0 1-.32.32l-1.5.02a.32.32 0 0 1-.26-.13l-4.59-6.19a.32.32 0 0 0-.58.19ZM207.59 92.5h4.48a.43.43 0 0 1 .43.43v1.14a.43.43 0 0 1-.43.43h-7.14a.43.43 0 0 1-.43-.43v-9.9a.43.43 0 0 1 .43-.43l1.58.01a.43.43 0 0 1 .43.42l.22 7.91a.43.43 0 0 0 .43.42Z"/><path fill="#1c556f" d="M91.17 86.19a1.43 1.43 0 0 1 .35 2.2q-1.11 1.22-2.85.81a.58.58 0 0 1-.45-.54l-.11-2.12a.75.74-7 0 1 .61-.77q1.29-.24 2.45.42ZM102.11 86.15a1.24 1.24 0 0 1 .4 1.92q-1.27 1.47-3.4.82a.86.85-81.8 0 1-.61-.82V86.5a.69.68-7.1 0 1 .52-.66q1.62-.4 3.09.31Z"/><ellipse fill="#1c556f" rx="3.36" ry="3.14" transform="rotate(92 13.314 98.982)"/><circle cx="171.98" cy="89.09" r="3.26" fill="#1c556f"/><path fill="#1c556f" d="m195.99 89.05.93-1.84q.3-.58.53.03l.76 2.02a.53.53 0 0 1-.47.71l-1.13.04a.66.66 0 0 1-.62-.96ZM71.27 134.63a.62.62 0 0 1 .62-.62c12.02-.02 35.85-3.73 36.58 15.34.35 9.23-5.61 16.39-14.94 17.24q-2 .18-11.28.25a.5.5 0 0 0-.5.5v13.04a.64.64 0 0 1-.64.64l-9.12-.06a.65.65 0 0 1-.65-.65l-.07-45.68Zm22.9 9.81q-1.79-.94-3.82-.94h-8.1a.5.5 0 0 0-.5.5v13.23a.5.5 0 0 0 .51.5c4.03-.14 9.99.49 12.98-1.73 3.81-2.83 3.7-9.06-1.07-11.56ZM125.94 181h-9.62a.32.32 0 0 1-.32-.32v-46.36a.32.32 0 0 1 .32-.32H127a.32.32 0 0 1 .27.15l11.91 19.19a.32.32 0 0 0 .54 0l11.93-19.19a.32.32 0 0 1 .27-.15h10.52a.32.32 0 0 1 .32.32l.01 46.36a.32.32 0 0 1-.32.32h-9.54a.32.32 0 0 1-.32-.32l.14-29.21a.32.32 0 0 0-.58-.18l-12.48 19.01a.32.32 0 0 1-.54 0l-12.3-18.73a.32.32 0 0 0-.59.17l.02 28.94a.32.32 0 0 1-.32.32ZM174.59 134.13c12.4-.39 35.76-3.65 36.49 15.09q.5 12.73-11.3 16.56c-4.38 1.42-9.85.94-14.79 1.07a.5.5 0 0 0-.49.5v13.02a.63.63 0 0 1-.63.63h-9.24a.63.63 0 0 1-.63-.63v-45.63a.61.61 0 0 1 .59-.61Zm22.5 10.39q-1.83-1.01-3.91-1.01l-8.18-.01a.5.49-89.4 0 0-.5.5v13.22a.51.51 0 0 0 .52.51c4.02-.08 10.08.47 13.03-1.77 3.65-2.76 3.59-8.94-.96-11.44ZM234.31 144.18a9.88 9.88 0 0 1-9.88 9.88 9.88 9.88 0 0 1-9.88-9.88 9.88 9.88 0 0 1 9.88-9.88 9.88 9.88 0 0 1 9.88 9.88Zm-1.22.02a8.67 8.67 0 0 0-8.67-8.67 8.67 8.67 0 0 0-8.67 8.67 8.67 8.67 0 0 0 8.67 8.67 8.67 8.67 0 0 0 8.67-8.67Z"/><path fill="#1c556f" d="m222.76 146.43-.05 2.19a.65.64-89.1 0 1-.65.64l-.91-.01a.61.61 0 0 1-.61-.6l-.14-9.25a.51.51 0 0 1 .44-.52q4.69-.56 6-.01c3.02 1.26 3.19 4.37.65 6.37a.57.56 54.4 0 0-.12.76l1.62 2.47a.44.44 0 0 1-.17.63c-2.01.99-3.29-1.34-4-2.78a.92.92 0 0 0-.83-.52h-.59a.64.64 0 0 0-.64.63Zm2.97-5.59-2.32-.13a.63.62-88.3 0 0-.66.63v1.75a.55.55 0 0 0 .37.52q2.37.83 3.52-1.02a1.15 1.15 0 0 0-.91-1.75ZM63.33 216.45c1.07.14.98 1.63.54 2.22a.76.75-63.9 0 1-.81.28q-5.21-1.49-5.8-6.31c-1.24-10.02 14.37-11.61 14.66-.24a.68.67 90 0 1-.68.69l-1.3-.02a.67.66 1.7 0 1-.65-.68c.14-4.2-3.29-6.72-7-4.76-3.61 1.91-3.46 8.24 1.04 8.82ZM230.69 214.9q2.76 2.41 5.82 4.48c1.46.99 1.17 1.8-.03 2.79a.59.59 0 0 1-.74.02q-4.89-3.8-9.91-7.54c-4.48-3.35 11.63-2.62 11.88-2.61q1.13.04.22-.63l-6.48-4.74a.66.66 0 0 1-.11-.97l.88-1a.71.7-50.5 0 1 .96-.1l9.92 7.63a.8.79-64 0 1 .28.84c-.64 2.33-8.29 1.36-12.56 1.48q-.51.01-.13.35ZM77.04 220.09q-1.17.55-1.81 1.73a.63.63 0 0 0 .13.78c1 .89 4.38 3.56 4.09 5.05q-.41 2.09-1.89.56l-3.88-3.98a.55.55 0 0 0-.79 0l-1.72 1.76a.64.63 44 0 0 .02.89l4.75 4.66a.63.62 44.7 0 1 .01.88l-.76.77a.65.64-45.9 0 1-.91.02l-6.64-6.41a.7.69 44.1 0 1-.02-.99l9.15-9.34a.56.56 0 0 1 .8 0l6.62 6.58a.63.63 0 0 1 0 .88l-.86.88a.61.61 0 0 1-.86 0l-4.64-4.58a.7.69 54.6 0 0-.79-.14ZM227.93 228.22a7.35 7.35 0 0 1-7.35 7.35 7.35 7.35 0 0 1-7.35-7.35 7.35 7.35 0 0 1 7.35-7.35 7.35 7.35 0 0 1 7.35 7.35Zm-2.59 0a4.77 4.77 0 0 0-4.77-4.77 4.77 4.77 0 0 0-4.77 4.77 4.77 4.77 0 0 0 4.77 4.77 4.77 4.77 0 0 0 4.77-4.77ZM89.43 227.64c3.28 1.74 9.76 5.18 6.39 10.04-1.14 1.64-2.75 1.85-4.6 1.71a.47.47 0 0 0-.5.49l.32 5.08a.38.38 0 0 1-.48.4c-2.64-.69-2.34-4.14-2.08-6.36a1.19 1.18-65.8 0 0-.37-.99l-1.53-1.42a.64.63 38.2 0 0-.96.11l-2.04 3.05a.66.65 32.7 0 1-.89.19l-1.07-.67a.7.7 0 0 1-.2-.99l7.21-10.44a.62.62 0 0 1 .8-.2Zm3.02 4.86-1.99-1.5a.71.71 0 0 0-1.02.18l-1.82 2.79a.58.58 0 0 0 .13.78q1.39 1.07 2.93 1.91c1.35.73 3.58.18 3.35-1.47q-.23-1.68-1.58-2.69Z"/><rect width="2.6" height="14.2" x="-1.3" y="-7.1" fill="#1c556f" rx=".7" transform="rotate(-33 505.482 -231.917)"/><path fill="#1c556f" d="m191.76 241.39-2.79 1.37a.63.62-28.4 0 1-.8-.23l-.64-1.02a.63.62 61.4 0 1 .26-.89l9.33-4.4a.75.74-16.4 0 1 1.06.57l.16 1.2a.67.66 80.8 0 1-.53.74q-1.42.26-2.53 1.11a.78.77 58.7 0 0-.23.95l4.47 9.3a.58.58 0 0 1-.28.78l-1.28.6a.63.63 0 0 1-.84-.3l-4.46-9.46a.68.68 0 0 0-.9-.32ZM105.25 239.93l-2.92-1.23a.6.6 0 0 1-.29-.85l.57-.99a.73.73 0 0 1 .93-.3l9.22 4.24a.64.64 0 0 1 .23.98l-.75.95a.78.78 0 0 1-.96.2l-2.57-1.38a.6.6 0 0 0-.82.28l-4.34 9.52a.72.71 25.2 0 1-.96.34l-1.13-.57a.75.74 26.2 0 1-.34-.99l4.45-9.35a.63.62 24.6 0 0-.32-.85Z"/><rect width="2.58" height="14.26" x="-1.29" y="-7.13" fill="#1c556f" rx=".72" transform="rotate(17.4 -758.238 511.057)"/><path fill="#1c556f" d="m183.41 253.57-5.32 1.58a.83.82-8.6 0 0-.59.79v1.79a1.33 1.32-25.2 0 1-.31.85q-.72.83-1.93.9a.45.45 0 0 1-.47-.51q.89-6.69 1.73-13.38c.24-1.87 1.98-2.62 3.21-1.13q4.41 5.27 8.79 10.57a.44.43 63.5 0 1-.23.7l-1.49.37a.9.9 0 0 1-.9-.3l-1.63-1.97a.83.82 61.4 0 0-.86-.26Zm-5.47-1.16a.3.3 0 0 0 .37.33l3.68-1.03a.3.3 0 0 0 .16-.48l-3.02-3.68a.3.3 0 0 0-.52.15l-.67 4.71ZM130.43 252.24l5.91.98a.53.53 0 0 1 .43.62l-.23 1.27a.53.53 0 0 1-.61.43l-6-1.03a.53.53 0 0 0-.61.45l-.67 4.48a.53.53 0 0 1-.55.45l-1.52-.07a.53.53 0 0 1-.5-.62l2.19-12.98a.53.53 0 0 1 .61-.43l9.28 1.54a.53.53 0 0 1 .44.57l-.1 1.31a.53.53 0 0 1-.62.48l-6.98-1.18a.53.53 0 0 0-.61.47l-.3 2.68a.53.53 0 0 0 .44.58ZM166.27 248.15a.84.83-60.5 0 1 .33 1.22l-.65.98a.6.6 0 0 1-.8.19c-7.87-4.47-10.62 7.21-3.91 8.72q2.52.57 4.67-1.83a.57.55-47.1 0 1 .8-.04l1 .93a.58.57 44.7 0 1 .01.84q-3.83 3.66-8.17 2.11c-9.47-3.37-4.12-18.24 6.72-13.12Z"/><rect width="2.54" height="14.18" x="-1.27" y="-7.09" fill="#1c556f" rx=".74" transform="rotate(2.2 -6564.942 3929.344)"/></svg>