<?xml version="1.0" encoding="UTF-8"?>
<svg xmlns="http://www.w3.org/2000/svg" width="178" height="35" viewBox="-12 -6 202 47" fill="none">
  <g clip-path="url(#clip0_401_8)">
    <path d="M172.546 5.84652H178L169.856 29.3068C169.13 31.3348 168.22 32.789 167.127 33.6694C166.034 34.5548 164.502 34.9951 162.529 34.9951C161.159 35.0148 159.795 34.8318 158.474 34.451L159.369 30.4346C160.19 30.6027 161.026 30.6967 161.861 30.7066C163.523 30.7066 164.64 29.8212 165.214 28.0554L157.268 5.84158H162.914L164.744 11.3765C165.965 14.9873 166.979 18.1034 167.785 20.7299C168.902 17.04 169.876 13.909 170.707 11.3369L172.536 5.84158L172.546 5.84652ZM153.105 5.57448C154.232 5.62889 155.345 5.84158 156.417 6.19771L155.483 10.872C154.593 10.6246 153.678 10.4911 152.754 10.4812C152.111 10.4614 151.468 10.595 150.885 10.872C150.301 11.149 149.792 11.5644 149.401 12.0789C148.571 13.1423 148.155 14.6262 148.155 16.5206V26.9276H142.781V5.84652H147.77V8.96269C148.887 6.70223 150.652 5.57448 153.07 5.57448H153.11H153.105ZM137.718 5.57448C138.845 5.64373 139.962 5.86631 141.03 6.23728L140.056 10.9115C139.181 10.6642 138.276 10.5356 137.367 10.5208C136.724 10.496 136.086 10.6246 135.502 10.8967C134.919 11.1687 134.41 11.5743 134.014 12.0789C133.184 13.1423 132.768 14.6262 132.768 16.5206V26.9276H127.433V5.84652H132.422V8.96269C133.54 6.70223 135.305 5.57448 137.723 5.57448M115.206 9.35345C112.506 9.35345 110.815 10.8868 110.142 13.9535H120.036C119.997 12.6823 119.482 11.4705 118.592 10.5653C118.143 10.1547 117.614 9.83324 117.04 9.62549C116.466 9.41775 115.853 9.32872 115.245 9.35839H115.206V9.35345ZM115.987 23.0695C117.035 23.0943 118.073 22.8816 119.028 22.4463C120.18 21.7934 121.262 21.0218 122.261 20.1463L125.263 23.4603C124.017 24.8007 122.523 25.8889 120.862 26.6556C119.28 27.3036 117.584 27.6201 115.878 27.5904C112.476 27.5904 109.777 26.5913 107.774 24.588C105.776 22.5897 104.788 19.8841 104.812 16.4811C104.812 13.1572 105.786 10.4268 107.734 8.29494C109.683 6.16309 112.254 5.09963 115.448 5.09963C118.642 5.09963 120.995 6.01964 122.731 7.86461C124.466 9.70958 125.327 12.3064 125.302 15.66C125.302 16.2436 125.302 16.946 125.223 17.7671H110.068C110.33 19.4291 110.953 20.7299 111.937 21.6648C112.926 22.5996 114.286 23.0646 116.026 23.0646H115.987V23.0695ZM88.4413 21.0415C88.9011 21.6054 89.4846 22.0605 90.1471 22.3622C90.8097 22.6689 91.5315 22.8123 92.2584 22.7925C92.9803 22.8222 93.7022 22.6788 94.3598 22.3721C95.0174 22.0654 95.5909 21.6104 96.0359 21.0366C96.9457 19.894 97.4006 18.3359 97.4006 16.3574C97.4006 14.3789 96.9309 12.7961 95.9964 11.604C95.5613 11.0253 94.9976 10.5603 94.3449 10.2487C93.6923 9.93711 92.9753 9.78872 92.2534 9.81345C91.5217 9.79861 90.7998 9.95195 90.1372 10.2636C89.4747 10.5752 88.8912 11.0352 88.4363 11.604C87.4227 12.8257 86.9184 14.4086 86.9184 16.3574C86.9184 18.3062 87.4227 19.8643 88.4363 21.0366M93.539 5.2134C94.8147 5.18372 96.0804 5.44587 97.2424 5.98007C98.4043 6.51427 99.4278 7.30568 100.239 8.29494C101.979 10.2932 102.859 12.984 102.889 16.3624C102.914 19.7407 102.034 22.4315 100.239 24.4298C99.4229 25.424 98.3944 26.2253 97.2276 26.7644C96.0607 27.3036 94.785 27.5707 93.4994 27.5459C90.7207 27.5459 88.6143 26.6111 87.1854 24.7414V34.3669H81.8108V5.84652H86.7997V8.6115C88.3078 6.35105 90.5526 5.21834 93.539 5.21834M79.8627 24.4298L80.367 26.5715C79.121 27.0315 77.8008 27.2689 76.4708 27.2739C74.7551 27.2739 73.5091 26.8831 72.7328 26.1066C71.9516 25.325 71.5659 24.1577 71.5659 22.5996V9.00226H67.7883V7.01385H71.6054V0H74.3348V7.01385H80.0209V8.96269H74.3348V22.2138C74.3348 23.2031 74.5177 23.9055 74.8787 24.3209C75.2693 24.7117 75.9318 24.9442 76.8268 24.9442C77.8701 24.9392 78.9133 24.7661 79.9022 24.4397H79.8627V24.4298ZM58.7845 8.6857C57.9835 8.65602 57.1825 8.79452 56.4309 9.0814C55.6843 9.36829 54.9971 9.80356 54.4186 10.3625C53.2764 11.4804 52.5891 13.0632 52.3518 15.1159H64.8958C64.8563 13.167 64.2728 11.5694 63.2197 10.4367C62.1665 9.30893 60.6486 8.6857 58.7796 8.6857M65.9886 21.5461L67.7043 23.2229C66.5572 24.5584 65.1678 25.6713 63.6152 26.4973C62.2011 27.1601 60.6584 27.4965 59.096 27.4717C56.159 27.4717 53.8252 26.522 52.0848 24.6276C50.3443 22.7282 49.4889 20.2254 49.5137 17.1043C49.5137 13.9337 50.3592 11.3616 52.0452 9.38807C53.7313 7.4145 55.981 6.42524 58.7845 6.42524C61.588 6.42524 63.6696 7.28095 65.2518 8.99731C66.8341 10.7137 67.6301 13.0137 67.6301 15.8974C67.6301 16.3277 67.6004 16.7581 67.551 17.1834H52.2776C52.2826 19.2164 52.9056 21.1998 54.0675 22.8717C55.2097 24.4298 56.8858 25.2113 59.0911 25.2113C60.2678 25.236 61.4347 24.9689 62.4829 24.4298C63.7833 23.6433 64.9651 22.6738 65.9886 21.5461ZM39.0314 8.6857C38.2304 8.65602 37.4294 8.79452 36.6828 9.0814C35.9313 9.36829 35.2489 9.80356 34.6704 10.3625C33.5283 11.4804 32.8262 13.0632 32.5641 15.1159H45.1873C45.1378 13.1423 44.5643 11.5842 43.4716 10.4367C42.3788 9.29409 40.9153 8.71043 39.071 8.6857H39.0314ZM46.2009 21.5461L47.9512 23.2229C46.7942 24.5633 45.39 25.6762 43.8226 26.4973C42.4085 27.1601 40.8658 27.4965 39.3034 27.4717C36.3961 27.4717 34.0722 26.522 32.3317 24.6276C30.5913 22.7282 29.7211 20.2254 29.7211 17.1043C29.7211 13.9832 30.5764 11.3616 32.2922 9.38807C34.0079 7.4145 36.2527 6.42524 39.0314 6.42524C41.8102 6.42524 43.9166 7.28095 45.4988 8.99731C47.081 10.7137 47.8622 13.0137 47.8375 15.8974C47.8375 16.3277 47.8078 16.7581 47.7584 17.1834H32.485C32.5048 19.2213 33.1426 21.2048 34.3144 22.8717C35.4319 24.4298 37.0932 25.2113 39.2984 25.2113C40.4901 25.241 41.6668 24.9739 42.7249 24.4298C44.0253 23.6433 45.2071 22.6738 46.2306 21.5461H46.191H46.2009ZM20.4156 6.43019C22.4923 6.43019 24.119 7.02869 25.2859 8.22075C26.4528 9.41775 27.0362 11.0154 27.0362 13.0137V26.9276H24.3069V13.7557C24.3069 10.3773 22.8384 8.69064 19.9063 8.69064C19.2191 8.66591 18.5367 8.78957 17.9038 9.06162C17.2709 9.32872 16.7023 9.73926 16.2474 10.2487C15.2981 11.3666 14.8136 12.801 14.8828 14.2651V26.9326H12.1534V13.7557C12.1534 10.3773 10.6751 8.69064 7.71333 8.69064C7.08044 8.67086 6.4525 8.77968 5.86411 9.00721C5.27572 9.23474 4.73678 9.57603 4.28189 10.0163C3.35233 10.9264 2.79856 12.1481 2.72439 13.444V26.8881H0V7.01385H2.57111V9.46721C3.79239 7.46891 5.71578 6.46481 8.33633 6.46481C11.1398 6.46481 13.0781 7.58267 14.1411 9.8184C15.5404 7.58267 17.622 6.46481 20.3761 6.46481L20.4156 6.42524V6.43019Z" fill="white"></path>
  </g>
  <defs>
    <clipPath id="clip0_401_8">
      <rect width="178" height="35" fill="white"></rect>
    </clipPath>
  </defs>
</svg>
