<?xml version="1.0" encoding="UTF-8"?>
<svg xmlns="http://www.w3.org/2000/svg" width="90" height="53" viewBox="-36 -4 162 61" fill="none">
  <path d="M14.4011 18.0906H2L19.7749 35.77H31.7627L14.4011 18.0906Z" fill="white"></path>
  <path d="M10.6808 8.63414L2 0H24.271C25.9511 0 27.6455 0.170286 29.2005 0.806362C36.2692 3.69781 37.9632 9.51241 37.9632 13.9791C37.9632 18.9129 34.2429 24.2578 28.4557 25.9024L20.6017 18.0906C23.4953 18.0906 28.4557 17.2683 28.8691 13.9791C29.2825 10.6899 26.8022 8.63414 24.322 8.63414H10.6808Z" fill="white"></path>
  <path d="M37.7614 36H53.9886V31.4318H43.3864V26.6477H53.1591V22.0682H43.3864V17.2955H55.9886L53.9886 12.7273H37.7614V36Z" fill="white"></path>
  <path d="M60.5309 36H65.94L70.1332 21.8864H70.315L74.5082 36H79.9286L86.69 12.7273H80.4855L76.9627 28.0114H76.7696L72.7582 12.7273H67.69L63.6786 27.9773H63.4855L59.9741 12.7273H53.7582L60.5309 36Z" fill="white"></path>
  <path d="M7.69727 43.2168H4.49805V52.0898H3.19238V43.2168H0V42.1367H7.69727V43.2168Z" fill="white"></path>
  <path d="M14.7998 47.4893H10.4863V51.0166H15.4971V52.0898H9.17383V42.1367H15.4287V43.2168H10.4863V46.416H14.7998V47.4893Z" fill="white"></path>
  <path d="M24.4521 48.9316C24.3291 49.9844 23.9395 50.7979 23.2832 51.3721C22.6315 51.9417 21.7633 52.2266 20.6787 52.2266C19.5029 52.2266 18.5596 51.805 17.8486 50.9619C17.1423 50.1188 16.7891 48.9909 16.7891 47.5781V46.6211C16.7891 45.696 16.9531 44.8825 17.2812 44.1807C17.6139 43.4788 18.0833 42.9411 18.6895 42.5674C19.2956 42.1891 19.9974 42 20.7949 42C21.8522 42 22.6999 42.2962 23.3379 42.8887C23.9759 43.4766 24.3473 44.2923 24.4521 45.3359H23.1328C23.0189 44.543 22.7705 43.9688 22.3877 43.6133C22.0094 43.2578 21.4785 43.0801 20.7949 43.0801C19.9564 43.0801 19.2979 43.39 18.8193 44.0098C18.3454 44.6296 18.1084 45.5114 18.1084 46.6553V47.6191C18.1084 48.6992 18.334 49.5583 18.7852 50.1963C19.2363 50.8343 19.8675 51.1533 20.6787 51.1533C21.4079 51.1533 21.9661 50.9893 22.3535 50.6611C22.7454 50.3285 23.0052 49.752 23.1328 48.9316H24.4521Z" fill="white"></path>
  <path d="M33.8994 52.0898H32.5801V47.4893H27.5625V52.0898H26.25V42.1367H27.5625V46.416H32.5801V42.1367H33.8994V52.0898Z" fill="white"></path>
  <path d="M43.8799 52.0898H42.5605L37.5498 44.4199V52.0898H36.2305V42.1367H37.5498L42.5742 49.8408V42.1367H43.8799V52.0898Z" fill="white"></path>
  <path d="M53.8672 47.4346C53.8672 48.4098 53.7031 49.262 53.375 49.9912C53.0469 50.7158 52.582 51.2695 51.9805 51.6523C51.3789 52.0352 50.6771 52.2266 49.875 52.2266C49.0911 52.2266 48.3962 52.0352 47.79 51.6523C47.1839 51.265 46.7122 50.7158 46.375 50.0049C46.0423 49.2894 45.8714 48.4622 45.8623 47.5234V46.8057C45.8623 45.8486 46.0286 45.0033 46.3613 44.2695C46.694 43.5358 47.1634 42.9753 47.7695 42.5879C48.3802 42.196 49.0775 42 49.8613 42C50.6589 42 51.3607 42.1937 51.9668 42.5811C52.5775 42.9639 53.0469 43.5221 53.375 44.2559C53.7031 44.985 53.8672 45.835 53.8672 46.8057V47.4346ZM52.5615 46.792C52.5615 45.6117 52.3245 44.707 51.8506 44.0781C51.3766 43.4447 50.7135 43.1279 49.8613 43.1279C49.0319 43.1279 48.3779 43.4447 47.8994 44.0781C47.4255 44.707 47.1816 45.582 47.168 46.7031V47.4346C47.168 48.5785 47.4072 49.4785 47.8857 50.1348C48.3688 50.7865 49.0319 51.1123 49.875 51.1123C50.7227 51.1123 51.3789 50.8047 51.8438 50.1895C52.3086 49.5697 52.5479 48.6833 52.5615 47.5303V46.792Z" fill="white"></path>
  <path d="M57.1553 51.0166H61.8721V52.0898H55.8359V42.1367H57.1553V51.0166Z" fill="white"></path>
  <path d="M70.5742 47.4346C70.5742 48.4098 70.4102 49.262 70.082 49.9912C69.7539 50.7158 69.2891 51.2695 68.6875 51.6523C68.0859 52.0352 67.3841 52.2266 66.582 52.2266C65.7982 52.2266 65.1032 52.0352 64.4971 51.6523C63.891 51.265 63.4193 50.7158 63.082 50.0049C62.7493 49.2894 62.5785 48.4622 62.5693 47.5234V46.8057C62.5693 45.8486 62.7357 45.0033 63.0684 44.2695C63.401 43.5358 63.8704 42.9753 64.4766 42.5879C65.0872 42.196 65.7845 42 66.5684 42C67.3659 42 68.0677 42.1937 68.6738 42.5811C69.2845 42.9639 69.7539 43.5221 70.082 44.2559C70.4102 44.985 70.5742 45.835 70.5742 46.8057V47.4346ZM69.2686 46.792C69.2686 45.6117 69.0316 44.707 68.5576 44.0781C68.0837 43.4447 67.4206 43.1279 66.5684 43.1279C65.7389 43.1279 65.085 43.4447 64.6064 44.0781C64.1325 44.707 63.8887 45.582 63.875 46.7031V47.4346C63.875 48.5785 64.1143 49.4785 64.5928 50.1348C65.0758 50.7865 65.7389 51.1123 66.582 51.1123C67.4297 51.1123 68.0859 50.8047 68.5508 50.1895C69.0156 49.5697 69.2549 48.6833 69.2686 47.5303V46.792Z" fill="white"></path>
  <path d="M79.8916 50.7842C79.5544 51.2673 79.0827 51.6296 78.4766 51.8711C77.875 52.1081 77.1732 52.2266 76.3711 52.2266C75.5599 52.2266 74.8398 52.0374 74.2109 51.6592C73.582 51.2764 73.0944 50.734 72.748 50.0322C72.4062 49.3304 72.2308 48.5169 72.2217 47.5918V46.7236C72.2217 45.2243 72.5703 44.0622 73.2676 43.2373C73.9694 42.4124 74.9538 42 76.2207 42C77.2598 42 78.096 42.2666 78.7295 42.7998C79.363 43.3285 79.7503 44.0804 79.8916 45.0557H78.5791C78.333 43.7386 77.5492 43.0801 76.2275 43.0801C75.348 43.0801 74.6803 43.39 74.2246 44.0098C73.7734 44.625 73.5456 45.5182 73.541 46.6895V47.5029C73.541 48.6195 73.7962 49.5081 74.3066 50.1689C74.8171 50.8252 75.5075 51.1533 76.3779 51.1533C76.8701 51.1533 77.3008 51.0986 77.6699 50.9893C78.0391 50.8799 78.3444 50.6953 78.5859 50.4355V48.2002H76.2822V47.1338H79.8916V50.7842Z" fill="white"></path>
  <path d="M85.1211 47.1338L87.7188 42.1367H89.209L85.7773 48.3779V52.0898H84.4648V48.3779L81.0332 42.1367H82.5371L85.1211 47.1338Z" fill="white"></path>
</svg>
