<svg width="1008" height="1008" viewBox="0 0 1008 1008" fill="none" xmlns="http://www.w3.org/2000/svg">
<g filter="url(#filter0_d_306_52)">
<circle cx="504" cy="500" r="500" fill="url(#paint0_radial_306_52)" shape-rendering="crispEdges"/>
<circle cx="504" cy="500" r="499.5" stroke="black" shape-rendering="crispEdges"/>
</g>
<g filter="url(#filter1_d_306_52)">
<ellipse cx="504.5" cy="500.5" rx="394.5" ry="384.5" fill="black"/>
<path d="M898.5 500.5C898.5 712.565 722.112 884.5 504.5 884.5C286.888 884.5 110.5 712.565 110.5 500.5C110.5 288.435 286.888 116.5 504.5 116.5C722.112 116.5 898.5 288.435 898.5 500.5Z" stroke="black"/>
</g>
<path d="M283.281 465.835C282.627 459.246 279.823 454.128 274.868 450.479C269.913 446.831 263.188 445.007 254.694 445.007C248.922 445.007 244.049 445.824 240.074 447.457C236.099 449.036 233.05 451.242 230.926 454.073C228.857 456.905 227.822 460.117 227.822 463.711C227.714 466.706 228.34 469.319 229.701 471.552C231.117 473.784 233.05 475.717 235.5 477.351C237.95 478.93 240.782 480.318 243.994 481.516C247.207 482.66 250.637 483.64 254.286 484.457L269.314 488.05C276.61 489.684 283.308 491.862 289.406 494.585C295.505 497.307 300.786 500.656 305.251 504.631C309.716 508.606 313.174 513.288 315.624 518.679C318.129 524.07 319.409 530.25 319.463 537.219C319.409 547.456 316.795 556.332 311.622 563.846C306.504 571.306 299.098 577.105 289.406 581.243C279.768 585.327 268.143 587.369 254.531 587.369C241.027 587.369 229.265 585.299 219.246 581.161C209.282 577.023 201.496 570.897 195.887 562.784C190.333 554.616 187.42 544.516 187.148 532.482H221.37C221.751 538.091 223.357 542.773 226.189 546.531C229.075 550.233 232.914 553.037 237.705 554.943C242.551 556.795 248.024 557.72 254.122 557.72C260.112 557.72 265.312 556.849 269.722 555.107C274.187 553.364 277.645 550.941 280.095 547.837C282.545 544.734 283.771 541.167 283.771 537.138C283.771 533.381 282.654 530.223 280.422 527.663C278.244 525.104 275.031 522.926 270.784 521.129C266.591 519.332 261.446 517.699 255.347 516.229L237.134 511.655C223.031 508.224 211.896 502.861 203.728 495.565C195.56 488.268 191.504 478.44 191.558 466.08C191.504 455.952 194.199 447.103 199.644 439.535C205.144 431.966 212.685 426.058 222.268 421.811C231.852 417.564 242.742 415.44 254.939 415.44C267.354 415.44 278.189 417.564 287.446 421.811C296.757 426.058 303.999 431.966 309.172 439.535C314.345 447.103 317.013 455.87 317.176 465.835H283.281ZM343.251 585V417.727H378.617V486.744H450.41V417.727H485.694V585H450.41V515.902H378.617V585H343.251ZM543.684 585H505.787L563.532 417.727H609.107L666.77 585H628.873L586.973 455.952H585.666L543.684 585ZM541.316 519.251H630.833V546.857H541.316V519.251ZM686.904 585V417.727H752.898C765.53 417.727 776.312 419.987 785.242 424.506C794.226 428.971 801.06 435.315 805.742 443.537C810.48 451.705 812.848 461.315 812.848 472.369C812.848 483.477 810.452 493.033 805.661 501.037C800.869 508.987 793.927 515.085 784.833 519.332C775.794 523.58 764.85 525.703 751.999 525.703H707.813V497.28H746.282C753.034 497.28 758.642 496.354 763.107 494.503C767.572 492.652 770.894 489.875 773.072 486.172C775.304 482.469 776.421 477.868 776.421 472.369C776.421 466.815 775.304 462.132 773.072 458.32C770.894 454.509 767.545 451.623 763.026 449.663C758.561 447.648 752.925 446.641 746.119 446.641H722.269V585H686.904ZM777.237 508.878L818.811 585H779.769L739.095 508.878H777.237Z" fill="white"/>
<defs>
<filter id="filter0_d_306_52" x="0" y="0" width="1008" height="1008" filterUnits="userSpaceOnUse" color-interpolation-filters="sRGB">
<feFlood flood-opacity="0" result="BackgroundImageFix"/>
<feColorMatrix in="SourceAlpha" type="matrix" values="0 0 0 0 0 0 0 0 0 0 0 0 0 0 0 0 0 0 127 0" result="hardAlpha"/>
<feOffset dy="4"/>
<feGaussianBlur stdDeviation="2"/>
<feComposite in2="hardAlpha" operator="out"/>
<feColorMatrix type="matrix" values="0 0 0 0 0 0 0 0 0 0 0 0 0 0 0 0 0 0 0.25 0"/>
<feBlend mode="normal" in2="BackgroundImageFix" result="effect1_dropShadow_306_52"/>
<feBlend mode="normal" in="SourceGraphic" in2="effect1_dropShadow_306_52" result="shape"/>
</filter>
<filter id="filter1_d_306_52" x="106" y="112" width="797" height="777" filterUnits="userSpaceOnUse" color-interpolation-filters="sRGB">
<feFlood flood-opacity="0" result="BackgroundImageFix"/>
<feColorMatrix in="SourceAlpha" type="matrix" values="0 0 0 0 0 0 0 0 0 0 0 0 0 0 0 0 0 0 127 0" result="hardAlpha"/>
<feOffset/>
<feGaussianBlur stdDeviation="2"/>
<feComposite in2="hardAlpha" operator="out"/>
<feColorMatrix type="matrix" values="0 0 0 0 0 0 0 0 0 0 0 0 0 0 0 0 0 0 0.25 0"/>
<feBlend mode="normal" in2="BackgroundImageFix" result="effect1_dropShadow_306_52"/>
<feBlend mode="normal" in="SourceGraphic" in2="effect1_dropShadow_306_52" result="shape"/>
</filter>
<radialGradient id="paint0_radial_306_52" cx="0" cy="0" r="1" gradientUnits="userSpaceOnUse" gradientTransform="translate(504 500) rotate(90) scale(500 489.501)">
<stop offset="0.944011" stop-color="#0F1014"/>
<stop offset="0.954306" stop-color="#936AED"/>
<stop offset="0.96634" stop-color="#BB8CF4"/>
<stop offset="0.970132" stop-color="#936AED" stop-opacity="0.85"/>
<stop offset="1" stop-color="#3237BF"/>
</radialGradient>
</defs>
</svg>